%TF.GenerationSoftware,KiCad,Pcbnew,8.0.8*%
%TF.CreationDate,2025-02-16T15:54:53+05:30*%
%TF.ProjectId,RoyTyper,526f7954-7970-4657-922e-6b696361645f,rev?*%
%TF.SameCoordinates,Original*%
%TF.FileFunction,Soldermask,Bot*%
%TF.FilePolarity,Negative*%
%FSLAX46Y46*%
G04 Gerber Fmt 4.6, Leading zero omitted, Abs format (unit mm)*
G04 Created by KiCad (PCBNEW 8.0.8) date 2025-02-16 15:54:53*
%MOMM*%
%LPD*%
G01*
G04 APERTURE LIST*
%ADD10C,1.700000*%
%ADD11C,4.000000*%
%ADD12C,2.200000*%
%ADD13R,2.000000X2.000000*%
%ADD14C,2.000000*%
%ADD15C,2.800000*%
%ADD16C,1.524000*%
%ADD17R,1.600000X1.600000*%
%ADD18O,1.600000X1.600000*%
%ADD19C,0.150000*%
%TA.AperFunction,Profile*%
%ADD20C,0.050000*%
%TD*%
G04 APERTURE END LIST*
D10*
%TO.C,SW3*%
X132770000Y-69850000D03*
D11*
X137850000Y-69850000D03*
D10*
X142930000Y-69850000D03*
D12*
X140390000Y-64770000D03*
X134040000Y-67310000D03*
%TD*%
D10*
%TO.C,SW6*%
X132770000Y-88900000D03*
D11*
X137850000Y-88900000D03*
D10*
X142930000Y-88900000D03*
D12*
X140390000Y-83820000D03*
X134040000Y-86360000D03*
%TD*%
D10*
%TO.C,SW1*%
X94670000Y-69850000D03*
D11*
X99750000Y-69850000D03*
D10*
X104830000Y-69850000D03*
D12*
X102290000Y-64770000D03*
X95940000Y-67310000D03*
%TD*%
D10*
%TO.C,SW4*%
X94670000Y-88900000D03*
D11*
X99750000Y-88900000D03*
D10*
X104830000Y-88900000D03*
D12*
X102290000Y-83820000D03*
X95940000Y-86360000D03*
%TD*%
D10*
%TO.C,SW5*%
X113720000Y-88900000D03*
D11*
X118800000Y-88900000D03*
D10*
X123880000Y-88900000D03*
D12*
X121340000Y-83820000D03*
X114990000Y-86360000D03*
%TD*%
D10*
%TO.C,SW2*%
X113720000Y-69850000D03*
D11*
X118800000Y-69850000D03*
D10*
X123880000Y-69850000D03*
D12*
X121340000Y-64770000D03*
X114990000Y-67310000D03*
%TD*%
D13*
%TO.C,SW11*%
X69975000Y-93325000D03*
D14*
X69975000Y-98325000D03*
X69975000Y-95825000D03*
D15*
X77475000Y-90225000D03*
X77475000Y-101425000D03*
D14*
X84475000Y-93325000D03*
X84475000Y-98325000D03*
%TD*%
D10*
%TO.C,SW9*%
X132770000Y-107950000D03*
D11*
X137850000Y-107950000D03*
D10*
X142930000Y-107950000D03*
D12*
X140390000Y-102870000D03*
X134040000Y-105410000D03*
%TD*%
D10*
%TO.C,SW7*%
X94670000Y-107950000D03*
D11*
X99750000Y-107950000D03*
D10*
X104830000Y-107950000D03*
D12*
X102290000Y-102870000D03*
X95940000Y-105410000D03*
%TD*%
D10*
%TO.C,SW8*%
X113720000Y-107950000D03*
D11*
X118800000Y-107950000D03*
D10*
X123880000Y-107950000D03*
D12*
X121340000Y-102870000D03*
X114990000Y-105410000D03*
%TD*%
D16*
%TO.C,U1*%
X72225000Y-60325000D03*
X72225000Y-62865000D03*
X72225000Y-65405000D03*
X72225000Y-67945000D03*
X72225000Y-70485000D03*
X72225000Y-73025000D03*
X72225000Y-75565000D03*
X87465000Y-75565000D03*
X87465000Y-73025000D03*
X87465000Y-70485000D03*
X87465000Y-67945000D03*
X87465000Y-65405000D03*
X87465000Y-62865000D03*
X87465000Y-60325000D03*
%TD*%
D17*
%TO.C,D8*%
X128325000Y-113188750D03*
D18*
X128325000Y-105568750D03*
%TD*%
D17*
%TO.C,D7*%
X109275000Y-113188750D03*
D18*
X109275000Y-105568750D03*
%TD*%
D17*
%TO.C,D3*%
X147375000Y-75088750D03*
D18*
X147375000Y-67468750D03*
%TD*%
D17*
%TO.C,D9*%
X147375000Y-113188750D03*
D18*
X147375000Y-105568750D03*
%TD*%
D17*
%TO.C,D6*%
X147375000Y-94138750D03*
D18*
X147375000Y-86518750D03*
%TD*%
D17*
%TO.C,D2*%
X128325000Y-75088750D03*
D18*
X128325000Y-67468750D03*
%TD*%
D17*
%TO.C,D5*%
X128325000Y-94138750D03*
D18*
X128325000Y-86518750D03*
%TD*%
D17*
%TO.C,D1*%
X109275000Y-75088750D03*
D18*
X109275000Y-67468750D03*
%TD*%
D17*
%TO.C,D4*%
X109275000Y-94138750D03*
D18*
X109275000Y-86518750D03*
%TD*%
D19*
%TO.C,SW3*%
X128325000Y-60325000D02*
X147375000Y-60325000D01*
X128325000Y-79375000D02*
X128325000Y-60325000D01*
X147375000Y-60325000D02*
X147375000Y-79375000D01*
X147375000Y-79375000D02*
X128325000Y-79375000D01*
%TO.C,SW6*%
X128325000Y-79375000D02*
X147375000Y-79375000D01*
X128325000Y-98425000D02*
X128325000Y-79375000D01*
X147375000Y-79375000D02*
X147375000Y-98425000D01*
X147375000Y-98425000D02*
X128325000Y-98425000D01*
%TO.C,SW1*%
X90225000Y-60325000D02*
X109275000Y-60325000D01*
X90225000Y-79375000D02*
X90225000Y-60325000D01*
X109275000Y-60325000D02*
X109275000Y-79375000D01*
X109275000Y-79375000D02*
X90225000Y-79375000D01*
%TO.C,SW4*%
X90225000Y-79375000D02*
X109275000Y-79375000D01*
X90225000Y-98425000D02*
X90225000Y-79375000D01*
X109275000Y-79375000D02*
X109275000Y-98425000D01*
X109275000Y-98425000D02*
X90225000Y-98425000D01*
%TO.C,SW5*%
X109275000Y-79375000D02*
X128325000Y-79375000D01*
X109275000Y-98425000D02*
X109275000Y-79375000D01*
X128325000Y-79375000D02*
X128325000Y-98425000D01*
X128325000Y-98425000D02*
X109275000Y-98425000D01*
%TO.C,SW2*%
X109275000Y-60325000D02*
X128325000Y-60325000D01*
X109275000Y-79375000D02*
X109275000Y-60325000D01*
X128325000Y-60325000D02*
X128325000Y-79375000D01*
X128325000Y-79375000D02*
X109275000Y-79375000D01*
%TO.C,SW9*%
X128325000Y-98425000D02*
X147375000Y-98425000D01*
X128325000Y-117475000D02*
X128325000Y-98425000D01*
X147375000Y-98425000D02*
X147375000Y-117475000D01*
X147375000Y-117475000D02*
X128325000Y-117475000D01*
%TO.C,SW7*%
X90225000Y-98425000D02*
X109275000Y-98425000D01*
X90225000Y-117475000D02*
X90225000Y-98425000D01*
X109275000Y-98425000D02*
X109275000Y-117475000D01*
X109275000Y-117475000D02*
X90225000Y-117475000D01*
%TO.C,SW8*%
X109275000Y-98425000D02*
X128325000Y-98425000D01*
X109275000Y-117475000D02*
X109275000Y-98425000D01*
X128325000Y-98425000D02*
X128325000Y-117475000D01*
X128325000Y-117475000D02*
X109275000Y-117475000D01*
%TD*%
D20*
X53215000Y-57345000D02*
X152445000Y-57345000D01*
X152445000Y-121285000D01*
X53215000Y-121285000D01*
X53215000Y-57345000D01*
D19*
X76983207Y-65604819D02*
X76649874Y-65128628D01*
X76411779Y-65604819D02*
X76411779Y-64604819D01*
X76411779Y-64604819D02*
X76792731Y-64604819D01*
X76792731Y-64604819D02*
X76887969Y-64652438D01*
X76887969Y-64652438D02*
X76935588Y-64700057D01*
X76935588Y-64700057D02*
X76983207Y-64795295D01*
X76983207Y-64795295D02*
X76983207Y-64938152D01*
X76983207Y-64938152D02*
X76935588Y-65033390D01*
X76935588Y-65033390D02*
X76887969Y-65081009D01*
X76887969Y-65081009D02*
X76792731Y-65128628D01*
X76792731Y-65128628D02*
X76411779Y-65128628D01*
X77554636Y-65604819D02*
X77459398Y-65557200D01*
X77459398Y-65557200D02*
X77411779Y-65509580D01*
X77411779Y-65509580D02*
X77364160Y-65414342D01*
X77364160Y-65414342D02*
X77364160Y-65128628D01*
X77364160Y-65128628D02*
X77411779Y-65033390D01*
X77411779Y-65033390D02*
X77459398Y-64985771D01*
X77459398Y-64985771D02*
X77554636Y-64938152D01*
X77554636Y-64938152D02*
X77697493Y-64938152D01*
X77697493Y-64938152D02*
X77792731Y-64985771D01*
X77792731Y-64985771D02*
X77840350Y-65033390D01*
X77840350Y-65033390D02*
X77887969Y-65128628D01*
X77887969Y-65128628D02*
X77887969Y-65414342D01*
X77887969Y-65414342D02*
X77840350Y-65509580D01*
X77840350Y-65509580D02*
X77792731Y-65557200D01*
X77792731Y-65557200D02*
X77697493Y-65604819D01*
X77697493Y-65604819D02*
X77554636Y-65604819D01*
X78221303Y-64938152D02*
X78459398Y-65604819D01*
X78697493Y-64938152D02*
X78459398Y-65604819D01*
X78459398Y-65604819D02*
X78364160Y-65842914D01*
X78364160Y-65842914D02*
X78316541Y-65890533D01*
X78316541Y-65890533D02*
X78221303Y-65938152D01*
X78935589Y-64604819D02*
X79507017Y-64604819D01*
X79221303Y-65604819D02*
X79221303Y-64604819D01*
X79745113Y-64938152D02*
X79983208Y-65604819D01*
X80221303Y-64938152D02*
X79983208Y-65604819D01*
X79983208Y-65604819D02*
X79887970Y-65842914D01*
X79887970Y-65842914D02*
X79840351Y-65890533D01*
X79840351Y-65890533D02*
X79745113Y-65938152D01*
X80602256Y-64938152D02*
X80602256Y-65938152D01*
X80602256Y-64985771D02*
X80697494Y-64938152D01*
X80697494Y-64938152D02*
X80887970Y-64938152D01*
X80887970Y-64938152D02*
X80983208Y-64985771D01*
X80983208Y-64985771D02*
X81030827Y-65033390D01*
X81030827Y-65033390D02*
X81078446Y-65128628D01*
X81078446Y-65128628D02*
X81078446Y-65414342D01*
X81078446Y-65414342D02*
X81030827Y-65509580D01*
X81030827Y-65509580D02*
X80983208Y-65557200D01*
X80983208Y-65557200D02*
X80887970Y-65604819D01*
X80887970Y-65604819D02*
X80697494Y-65604819D01*
X80697494Y-65604819D02*
X80602256Y-65557200D01*
X81887970Y-65557200D02*
X81792732Y-65604819D01*
X81792732Y-65604819D02*
X81602256Y-65604819D01*
X81602256Y-65604819D02*
X81507018Y-65557200D01*
X81507018Y-65557200D02*
X81459399Y-65461961D01*
X81459399Y-65461961D02*
X81459399Y-65081009D01*
X81459399Y-65081009D02*
X81507018Y-64985771D01*
X81507018Y-64985771D02*
X81602256Y-64938152D01*
X81602256Y-64938152D02*
X81792732Y-64938152D01*
X81792732Y-64938152D02*
X81887970Y-64985771D01*
X81887970Y-64985771D02*
X81935589Y-65081009D01*
X81935589Y-65081009D02*
X81935589Y-65176247D01*
X81935589Y-65176247D02*
X81459399Y-65271485D01*
X82364161Y-65604819D02*
X82364161Y-64938152D01*
X82364161Y-65128628D02*
X82411780Y-65033390D01*
X82411780Y-65033390D02*
X82459399Y-64985771D01*
X82459399Y-64985771D02*
X82554637Y-64938152D01*
X82554637Y-64938152D02*
X82649875Y-64938152D01*
X82983209Y-65509580D02*
X83030828Y-65557200D01*
X83030828Y-65557200D02*
X82983209Y-65604819D01*
X82983209Y-65604819D02*
X82935590Y-65557200D01*
X82935590Y-65557200D02*
X82983209Y-65509580D01*
X82983209Y-65509580D02*
X82983209Y-65604819D01*
X82983209Y-64985771D02*
X83030828Y-65033390D01*
X83030828Y-65033390D02*
X82983209Y-65081009D01*
X82983209Y-65081009D02*
X82935590Y-65033390D01*
X82935590Y-65033390D02*
X82983209Y-64985771D01*
X82983209Y-64985771D02*
X82983209Y-65081009D01*
X83364161Y-65985771D02*
X83411780Y-65938152D01*
X83411780Y-65938152D02*
X83507018Y-65795295D01*
X83507018Y-65795295D02*
X83554637Y-65700057D01*
X83554637Y-65700057D02*
X83602256Y-65557200D01*
X83602256Y-65557200D02*
X83649875Y-65319104D01*
X83649875Y-65319104D02*
X83649875Y-65128628D01*
X83649875Y-65128628D02*
X83602256Y-64890533D01*
X83602256Y-64890533D02*
X83554637Y-64747676D01*
X83554637Y-64747676D02*
X83507018Y-64652438D01*
X83507018Y-64652438D02*
X83411780Y-64509580D01*
X83411780Y-64509580D02*
X83364161Y-64461961D01*
M02*
